<svg xmlns="http://www.w3.org/2000/svg" width="15.87" height="15.91" viewBox="0 0 15.87 15.91">
  <defs>
    <style>
      .cls-1 {
        fill: #1f373d;
        fill-rule: evenodd;
      }
    </style>
  </defs>
  <path id="Composite_Path" data-name="Composite Path" class="cls-1" d="M1498.44,5182.2a7.784,7.784,0,0,0-.46-1.49,7.646,7.646,0,0,0-.73-1.35,7.83,7.83,0,0,0-.97-1.17,8.23,8.23,0,0,0-2.53-1.71,7.571,7.571,0,0,0-1.49-.46,7.989,7.989,0,0,0-8.19,3.34,8.356,8.356,0,0,0-.73,1.35,7.784,7.784,0,0,0-.46,1.49,7.9,7.9,0,0,0-.16,1.6,7.754,7.754,0,0,0,.16,1.6,7.879,7.879,0,0,0,.46,1.5,8.8,8.8,0,0,0,.73,1.35,8.37,8.37,0,0,0,.97,1.17,7.8,7.8,0,0,0,1.18.97,7.646,7.646,0,0,0,1.35.73,7.134,7.134,0,0,0,1.49.46,7.614,7.614,0,0,0,3.2,0,6.955,6.955,0,0,0,1.49-.46,7.973,7.973,0,0,0,2.53-1.7,8.37,8.37,0,0,0,.97-1.17,8.014,8.014,0,0,0,.73-1.35,7.879,7.879,0,0,0,.46-1.5,7.761,7.761,0,0,0,.17-1.6A7.91,7.91,0,0,0,1498.44,5182.2Zm-1,1.53a15.877,15.877,0,0,0-4.72-.22c-0.05-.11-0.1-0.23-0.15-0.35-0.14-.33-0.29-0.66-0.45-0.98a8.724,8.724,0,0,0,3.78-2.69A6.754,6.754,0,0,1,1497.44,5183.73Zm-2.3-5.02a7.355,7.355,0,0,1-3.54,2.46,34.294,34.294,0,0,0-2.54-3.96,7.075,7.075,0,0,1,1.6-.19A6.752,6.752,0,0,1,1495.14,5178.71Zm-6.1-1.5v0.01h-0.03A0.049,0.049,0,0,0,1489.04,5177.21Zm-1.27.46a41.533,41.533,0,0,1,2.52,3.91,24.828,24.828,0,0,1-6.27.82A6.762,6.762,0,0,1,1487.77,5177.67Zm-3.9,6.13c0-.07.01-0.14,0.01-0.21a24.876,24.876,0,0,0,6.97-.97c0.19,0.38.38,0.77,0.55,1.16a2.759,2.759,0,0,0-.27.08,10.735,10.735,0,0,0-5.52,4.47v0.01A6.849,6.849,0,0,1,1483.87,5183.8Zm6.79,6.79a6.759,6.759,0,0,1-4.32-1.56,1.537,1.537,0,0,0,.15.12,9.222,9.222,0,0,1,5.33-4.24c0.01,0,.03-0.01.04-0.01a27.8,27.8,0,0,1,1.45,5.15A6.676,6.676,0,0,1,1490.66,5190.59Zm3.79-1.16a29.522,29.522,0,0,0-1.32-4.85,9.748,9.748,0,0,1,4.23.3A6.765,6.765,0,0,1,1494.45,5189.43Z" transform="translate(-1482.72 -5175.84)"/>
</svg>
