<svg xmlns="http://www.w3.org/2000/svg" width="15.84" height="12.88" viewBox="0 0 15.84 12.88">
  <defs>
    <style>
      .cls-1 {
        fill: #1f373d;
        fill-rule: evenodd;
      }
    </style>
  </defs>
  <path id="Path" class="cls-1" d="M1450.71,5179.35a6.4,6.4,0,0,1-1.86.51,3.247,3.247,0,0,0,1.43-1.8,6.26,6.26,0,0,1-2.07.79,3.247,3.247,0,0,0-5.61,2.23,3.052,3.052,0,0,0,.08.74,9.251,9.251,0,0,1-6.7-3.4,3.346,3.346,0,0,0-.44,1.64,3.268,3.268,0,0,0,1.45,2.7,3.2,3.2,0,0,1-1.47-.41v0.04a3.253,3.253,0,0,0,2.6,3.19,3.415,3.415,0,0,1-.85.11,3.078,3.078,0,0,1-.61-0.06,3.254,3.254,0,0,0,3.03,2.26,6.513,6.513,0,0,1-4.03,1.39c-0.27,0-.52-0.02-0.78-0.04a9.248,9.248,0,0,0,14.22-7.79c0-.14,0-0.28-0.01-0.42A6.467,6.467,0,0,0,1450.71,5179.35Z" transform="translate(-1434.88 -5177.81)"/>
</svg>
